<mxfile host="app.diagrams.net" agent="Mozilla/5.0 (Windows NT 10.0; Win64; x64) AppleWebKit/537.36 (KHTML, like Gecko) Chrome/126.0.0.0 Safari/537.36" version="24.7.5">
  <diagram name="Página-1" id="6zSpkxDkzAXSH7BaOqKK">
    <mxGraphModel grid="1" page="1" gridSize="10" guides="1" tooltips="1" connect="1" arrows="1" fold="1" pageScale="1" pageWidth="1169" pageHeight="827" math="0" shadow="0">
      <root>
        <mxCell id="0" />
        <mxCell id="1" parent="0" />
        <mxCell id="xwLTQEsDSrBxXVj2upfY-78" style="edgeStyle=orthogonalEdgeStyle;rounded=1;orthogonalLoop=1;jettySize=auto;html=1;exitX=0.5;exitY=0;exitDx=0;exitDy=0;entryX=0.5;entryY=1;entryDx=0;entryDy=0;sketch=1;curveFitting=1;jiggle=2;" edge="1" parent="1" source="xwLTQEsDSrBxXVj2upfY-2" target="xwLTQEsDSrBxXVj2upfY-11">
          <mxGeometry relative="1" as="geometry" />
        </mxCell>
        <mxCell id="xwLTQEsDSrBxXVj2upfY-2" value="&lt;b&gt;&lt;font style=&quot;font-size: 14px;&quot;&gt;*Endereço&lt;/font&gt;&lt;/b&gt;" style="rounded=1;whiteSpace=wrap;html=1;fillColor=#f8cecc;strokeColor=#b85450;sketch=1;curveFitting=1;jiggle=2;" vertex="1" parent="1">
          <mxGeometry x="650" y="-40" width="120" height="50" as="geometry" />
        </mxCell>
        <mxCell id="xwLTQEsDSrBxXVj2upfY-3" value="&lt;span style=&quot;font-size: 14px;&quot;&gt;&lt;b&gt;*Sobrenome&lt;/b&gt;&lt;/span&gt;" style="rounded=1;whiteSpace=wrap;html=1;fillColor=#f8cecc;strokeColor=#b85450;sketch=1;curveFitting=1;jiggle=2;" vertex="1" parent="1">
          <mxGeometry x="500" y="-40" width="120" height="50" as="geometry" />
        </mxCell>
        <mxCell id="xwLTQEsDSrBxXVj2upfY-109" style="edgeStyle=orthogonalEdgeStyle;rounded=1;orthogonalLoop=1;jettySize=auto;html=1;exitX=1;exitY=0.5;exitDx=0;exitDy=0;entryX=0;entryY=0.5;entryDx=0;entryDy=0;sketch=1;curveFitting=1;jiggle=2;" edge="1" parent="1" source="xwLTQEsDSrBxXVj2upfY-4" target="xwLTQEsDSrBxXVj2upfY-8">
          <mxGeometry relative="1" as="geometry" />
        </mxCell>
        <mxCell id="A40qBbhF1JYghewnGqG5-22" style="edgeStyle=orthogonalEdgeStyle;rounded=1;orthogonalLoop=1;jettySize=auto;html=1;exitX=0.5;exitY=0;exitDx=0;exitDy=0;entryX=0.5;entryY=1;entryDx=0;entryDy=0;sketch=1;curveFitting=1;jiggle=2;" edge="1" parent="1" source="xwLTQEsDSrBxXVj2upfY-4" target="xwLTQEsDSrBxXVj2upfY-12">
          <mxGeometry relative="1" as="geometry" />
        </mxCell>
        <mxCell id="A40qBbhF1JYghewnGqG5-23" style="edgeStyle=orthogonalEdgeStyle;rounded=1;orthogonalLoop=1;jettySize=auto;html=1;exitX=0.5;exitY=0;exitDx=0;exitDy=0;entryX=0.5;entryY=1;entryDx=0;entryDy=0;sketch=1;curveFitting=1;jiggle=2;" edge="1" parent="1" source="xwLTQEsDSrBxXVj2upfY-4" target="xwLTQEsDSrBxXVj2upfY-6">
          <mxGeometry relative="1" as="geometry" />
        </mxCell>
        <mxCell id="A40qBbhF1JYghewnGqG5-24" style="edgeStyle=orthogonalEdgeStyle;rounded=1;orthogonalLoop=1;jettySize=auto;html=1;exitX=0.5;exitY=0;exitDx=0;exitDy=0;entryX=0.5;entryY=1;entryDx=0;entryDy=0;sketch=1;curveFitting=1;jiggle=2;" edge="1" parent="1" source="xwLTQEsDSrBxXVj2upfY-4" target="xwLTQEsDSrBxXVj2upfY-3">
          <mxGeometry relative="1" as="geometry" />
        </mxCell>
        <mxCell id="A40qBbhF1JYghewnGqG5-25" style="edgeStyle=orthogonalEdgeStyle;rounded=1;orthogonalLoop=1;jettySize=auto;html=1;exitX=0.5;exitY=0;exitDx=0;exitDy=0;entryX=0.5;entryY=1;entryDx=0;entryDy=0;sketch=1;curveFitting=1;jiggle=2;" edge="1" parent="1" source="xwLTQEsDSrBxXVj2upfY-4" target="xwLTQEsDSrBxXVj2upfY-14">
          <mxGeometry relative="1" as="geometry" />
        </mxCell>
        <mxCell id="A40qBbhF1JYghewnGqG5-26" style="edgeStyle=orthogonalEdgeStyle;rounded=1;orthogonalLoop=1;jettySize=auto;html=1;exitX=0.5;exitY=0;exitDx=0;exitDy=0;sketch=1;curveFitting=1;jiggle=2;" edge="1" parent="1" source="xwLTQEsDSrBxXVj2upfY-4" target="xwLTQEsDSrBxXVj2upfY-2">
          <mxGeometry relative="1" as="geometry" />
        </mxCell>
        <mxCell id="xwLTQEsDSrBxXVj2upfY-4" value="&lt;b style=&quot;&quot;&gt;&lt;span style=&quot;font-size: 14px;&quot;&gt;Campos&lt;/span&gt;&lt;br&gt;&lt;font style=&quot;font-size: 10px;&quot;&gt;todos são obrigatórios&lt;/font&gt;&lt;/b&gt;" style="rounded=1;whiteSpace=wrap;html=1;fillColor=#fff2cc;strokeColor=#d6b656;sketch=1;curveFitting=1;jiggle=2;" vertex="1" parent="1">
          <mxGeometry x="645" y="200" width="130" height="60" as="geometry" />
        </mxCell>
        <mxCell id="xwLTQEsDSrBxXVj2upfY-79" style="edgeStyle=orthogonalEdgeStyle;rounded=1;orthogonalLoop=1;jettySize=auto;html=1;exitX=0.5;exitY=0;exitDx=0;exitDy=0;entryX=0.5;entryY=1;entryDx=0;entryDy=0;sketch=1;curveFitting=1;jiggle=2;" edge="1" parent="1" source="xwLTQEsDSrBxXVj2upfY-6" target="xwLTQEsDSrBxXVj2upfY-7">
          <mxGeometry relative="1" as="geometry" />
        </mxCell>
        <mxCell id="xwLTQEsDSrBxXVj2upfY-6" value="&lt;b&gt;&lt;font style=&quot;font-size: 14px;&quot;&gt;*Telefone&lt;/font&gt;&lt;/b&gt;" style="rounded=1;whiteSpace=wrap;html=1;fillColor=#f8cecc;strokeColor=#b85450;sketch=1;curveFitting=1;jiggle=2;" vertex="1" parent="1">
          <mxGeometry x="960" y="-40" width="120" height="50" as="geometry" />
        </mxCell>
        <mxCell id="xwLTQEsDSrBxXVj2upfY-7" value="&lt;div style=&quot;&quot;&gt;&lt;font style=&quot;font-size: 12px;&quot;&gt;&lt;b&gt;O entregador ligará para este número&lt;/b&gt;&lt;/font&gt;&lt;/div&gt;&lt;div style=&quot;&quot;&gt;&lt;br&gt;&lt;/div&gt;" style="rounded=1;whiteSpace=wrap;html=1;sketch=1;curveFitting=1;jiggle=2;" vertex="1" parent="1">
          <mxGeometry x="970" y="-150" width="120" height="50" as="geometry" />
        </mxCell>
        <mxCell id="xwLTQEsDSrBxXVj2upfY-110" style="edgeStyle=orthogonalEdgeStyle;rounded=1;orthogonalLoop=1;jettySize=auto;html=1;exitX=1;exitY=0.5;exitDx=0;exitDy=0;entryX=0;entryY=0.5;entryDx=0;entryDy=0;sketch=1;curveFitting=1;jiggle=2;" edge="1" parent="1" source="xwLTQEsDSrBxXVj2upfY-8" target="xwLTQEsDSrBxXVj2upfY-10">
          <mxGeometry relative="1" as="geometry" />
        </mxCell>
        <mxCell id="xwLTQEsDSrBxXVj2upfY-8" value="&lt;font style=&quot;font-size: 11px;&quot;&gt;Todos os campos devem ser preenchidos corretamente para avança&lt;/font&gt;" style="rounded=1;whiteSpace=wrap;html=1;fillColor=#f5f5f5;fontColor=#333333;strokeColor=#666666;sketch=1;curveFitting=1;jiggle=2;" vertex="1" parent="1">
          <mxGeometry x="840" y="205" width="140" height="50" as="geometry" />
        </mxCell>
        <mxCell id="xwLTQEsDSrBxXVj2upfY-103" style="edgeStyle=orthogonalEdgeStyle;rounded=1;orthogonalLoop=1;jettySize=auto;html=1;exitX=0.5;exitY=0;exitDx=0;exitDy=0;entryX=0.5;entryY=1;entryDx=0;entryDy=0;sketch=1;curveFitting=1;jiggle=2;" edge="1" parent="1" source="xwLTQEsDSrBxXVj2upfY-10" target="xwLTQEsDSrBxXVj2upfY-64">
          <mxGeometry relative="1" as="geometry" />
        </mxCell>
        <mxCell id="xwLTQEsDSrBxXVj2upfY-112" style="edgeStyle=orthogonalEdgeStyle;rounded=1;orthogonalLoop=1;jettySize=auto;html=1;exitX=1;exitY=0.5;exitDx=0;exitDy=0;entryX=0;entryY=0.5;entryDx=0;entryDy=0;sketch=1;curveFitting=1;jiggle=2;" edge="1" parent="1" source="xwLTQEsDSrBxXVj2upfY-10" target="xwLTQEsDSrBxXVj2upfY-16">
          <mxGeometry relative="1" as="geometry" />
        </mxCell>
        <mxCell id="xwLTQEsDSrBxXVj2upfY-10" value="&lt;span style=&quot;font-size: 14px;&quot;&gt;&lt;b&gt;Botão &quot;Avançar&quot;&lt;/b&gt;&lt;/span&gt;" style="rounded=1;whiteSpace=wrap;html=1;fillColor=#fff2cc;strokeColor=#d6b656;sketch=1;curveFitting=1;jiggle=2;" vertex="1" parent="1">
          <mxGeometry x="1040" y="205" width="120" height="50" as="geometry" />
        </mxCell>
        <mxCell id="xwLTQEsDSrBxXVj2upfY-11" value="&lt;div&gt;&lt;span style=&quot;font-size: 14px;&quot;&gt;&lt;b&gt;Para onde levar a scooter&lt;/b&gt;&lt;/span&gt;&lt;/div&gt;&lt;div&gt;&lt;br&gt;&lt;/div&gt;" style="rounded=1;whiteSpace=wrap;html=1;sketch=1;curveFitting=1;jiggle=2;" vertex="1" parent="1">
          <mxGeometry x="650" y="-140" width="120" height="50" as="geometry" />
        </mxCell>
        <mxCell id="xwLTQEsDSrBxXVj2upfY-12" value="&lt;b&gt;&lt;font style=&quot;font-size: 14px;&quot;&gt;*Nome&lt;/font&gt;&lt;/b&gt;" style="rounded=1;whiteSpace=wrap;html=1;fillColor=#f8cecc;strokeColor=#b85450;sketch=1;curveFitting=1;jiggle=2;" vertex="1" parent="1">
          <mxGeometry x="350" y="-40" width="120" height="50" as="geometry" />
        </mxCell>
        <mxCell id="xwLTQEsDSrBxXVj2upfY-14" value="&lt;b&gt;&lt;font style=&quot;font-size: 12px;&quot;&gt;*Estação de metro&lt;/font&gt;&lt;/b&gt;" style="rounded=1;whiteSpace=wrap;html=1;fillColor=#f8cecc;strokeColor=#b85450;sketch=1;curveFitting=1;jiggle=2;" vertex="1" parent="1">
          <mxGeometry x="810" y="-40" width="120" height="50" as="geometry" />
        </mxCell>
        <mxCell id="xwLTQEsDSrBxXVj2upfY-107" style="edgeStyle=orthogonalEdgeStyle;rounded=1;orthogonalLoop=1;jettySize=auto;html=1;exitX=1;exitY=0.5;exitDx=0;exitDy=0;entryX=0;entryY=0.5;entryDx=0;entryDy=0;sketch=1;curveFitting=1;jiggle=2;" edge="1" parent="1" source="xwLTQEsDSrBxXVj2upfY-15" target="xwLTQEsDSrBxXVj2upfY-4">
          <mxGeometry relative="1" as="geometry" />
        </mxCell>
        <mxCell id="xwLTQEsDSrBxXVj2upfY-15" value="&lt;span style=&quot;font-size: 14px;&quot;&gt;&lt;b&gt;Formulario&lt;br&gt;&quot;para quem é a scooter&quot;&lt;/b&gt;&lt;/span&gt;" style="rounded=1;whiteSpace=wrap;html=1;fillColor=#fff2cc;strokeColor=#d6b656;sketch=1;curveFitting=1;jiggle=2;" vertex="1" parent="1">
          <mxGeometry x="440" y="205" width="130" height="50" as="geometry" />
        </mxCell>
        <mxCell id="xwLTQEsDSrBxXVj2upfY-100" style="edgeStyle=orthogonalEdgeStyle;rounded=1;orthogonalLoop=1;jettySize=auto;html=1;entryX=0.5;entryY=0;entryDx=0;entryDy=0;sketch=1;curveFitting=1;jiggle=2;" edge="1" parent="1" source="xwLTQEsDSrBxXVj2upfY-16" target="xwLTQEsDSrBxXVj2upfY-57">
          <mxGeometry relative="1" as="geometry" />
        </mxCell>
        <mxCell id="xwLTQEsDSrBxXVj2upfY-113" style="edgeStyle=orthogonalEdgeStyle;rounded=1;orthogonalLoop=1;jettySize=auto;html=1;exitX=1;exitY=0.5;exitDx=0;exitDy=0;entryX=0;entryY=0.5;entryDx=0;entryDy=0;sketch=1;curveFitting=1;jiggle=2;" edge="1" parent="1" source="xwLTQEsDSrBxXVj2upfY-16" target="xwLTQEsDSrBxXVj2upfY-58">
          <mxGeometry relative="1" as="geometry" />
        </mxCell>
        <mxCell id="xwLTQEsDSrBxXVj2upfY-16" value="&lt;span style=&quot;font-size: 14px;&quot;&gt;&lt;b&gt;Formulário de &quot;Aluguel&quot;&lt;/b&gt;&lt;/span&gt;" style="rounded=1;whiteSpace=wrap;html=1;fillColor=#fff2cc;strokeColor=#d6b656;sketch=1;curveFitting=1;jiggle=2;" vertex="1" parent="1">
          <mxGeometry x="1200" y="205" width="120" height="50" as="geometry" />
        </mxCell>
        <mxCell id="xwLTQEsDSrBxXVj2upfY-46" value="&lt;b style=&quot;&quot;&gt;&lt;font style=&quot;font-size: 12px;&quot;&gt;Exibe erro &quot;Insira o &amp;lt;nome do campo&amp;gt; correto&quot;&lt;/font&gt;&lt;/b&gt;" style="rounded=1;whiteSpace=wrap;html=1;sketch=1;curveFitting=1;jiggle=2;" vertex="1" parent="1">
          <mxGeometry x="2120" y="270" width="120" height="50" as="geometry" />
        </mxCell>
        <mxCell id="xwLTQEsDSrBxXVj2upfY-127" style="edgeStyle=orthogonalEdgeStyle;rounded=1;orthogonalLoop=1;jettySize=auto;html=1;exitX=1;exitY=0.5;exitDx=0;exitDy=0;entryX=0;entryY=0.5;entryDx=0;entryDy=0;sketch=1;curveFitting=1;jiggle=2;" edge="1" parent="1" source="xwLTQEsDSrBxXVj2upfY-47" target="xwLTQEsDSrBxXVj2upfY-46">
          <mxGeometry relative="1" as="geometry" />
        </mxCell>
        <mxCell id="xwLTQEsDSrBxXVj2upfY-47" value="&lt;span style=&quot;font-size: 14px;&quot;&gt;&lt;b&gt;Se inválido&lt;/b&gt;&lt;/span&gt;" style="rounded=1;whiteSpace=wrap;html=1;fillColor=#f8cecc;strokeColor=#b85450;sketch=1;curveFitting=1;jiggle=2;" vertex="1" parent="1">
          <mxGeometry x="1930" y="270" width="120" height="50" as="geometry" />
        </mxCell>
        <mxCell id="xwLTQEsDSrBxXVj2upfY-51" value="&lt;b style=&quot;&quot;&gt;&lt;font style=&quot;font-size: 12px;&quot;&gt;Exibe pop-up com &quot;Número do pedido NNNNN&lt;/font&gt;&lt;/b&gt;" style="rounded=1;whiteSpace=wrap;html=1;sketch=1;curveFitting=1;jiggle=2;" vertex="1" parent="1">
          <mxGeometry x="2120" y="140" width="120" height="50" as="geometry" />
        </mxCell>
        <mxCell id="xwLTQEsDSrBxXVj2upfY-126" style="edgeStyle=orthogonalEdgeStyle;rounded=1;orthogonalLoop=1;jettySize=auto;html=1;exitX=1;exitY=0.5;exitDx=0;exitDy=0;entryX=0;entryY=0.5;entryDx=0;entryDy=0;sketch=1;curveFitting=1;jiggle=2;" edge="1" parent="1" source="xwLTQEsDSrBxXVj2upfY-52" target="xwLTQEsDSrBxXVj2upfY-51">
          <mxGeometry relative="1" as="geometry" />
        </mxCell>
        <mxCell id="xwLTQEsDSrBxXVj2upfY-52" value="&lt;span style=&quot;font-size: 14px;&quot;&gt;&lt;b&gt;Se válidos&lt;/b&gt;&lt;/span&gt;" style="rounded=1;whiteSpace=wrap;html=1;fillColor=#d5e8d4;strokeColor=#82b366;sketch=1;curveFitting=1;jiggle=2;" vertex="1" parent="1">
          <mxGeometry x="1930" y="140" width="120" height="50" as="geometry" />
        </mxCell>
        <mxCell id="A40qBbhF1JYghewnGqG5-32" style="edgeStyle=orthogonalEdgeStyle;rounded=1;orthogonalLoop=1;jettySize=auto;html=1;exitX=1;exitY=0.5;exitDx=0;exitDy=0;entryX=0.5;entryY=0;entryDx=0;entryDy=0;sketch=1;curveFitting=1;jiggle=2;" edge="1" parent="1" source="xwLTQEsDSrBxXVj2upfY-53" target="xwLTQEsDSrBxXVj2upfY-47">
          <mxGeometry relative="1" as="geometry" />
        </mxCell>
        <mxCell id="A40qBbhF1JYghewnGqG5-33" style="edgeStyle=orthogonalEdgeStyle;rounded=1;orthogonalLoop=1;jettySize=auto;html=1;exitX=1;exitY=0.5;exitDx=0;exitDy=0;entryX=0.5;entryY=1;entryDx=0;entryDy=0;sketch=1;curveFitting=1;jiggle=2;" edge="1" parent="1" source="xwLTQEsDSrBxXVj2upfY-53" target="xwLTQEsDSrBxXVj2upfY-52">
          <mxGeometry relative="1" as="geometry" />
        </mxCell>
        <mxCell id="xwLTQEsDSrBxXVj2upfY-53" value="&lt;span style=&quot;font-size: 14px;&quot;&gt;&lt;b&gt;Valida todos os campos obrigatórios&lt;/b&gt;&lt;/span&gt;" style="rounded=1;whiteSpace=wrap;html=1;fillColor=#fff2cc;strokeColor=#d6b656;sketch=1;curveFitting=1;jiggle=2;" vertex="1" parent="1">
          <mxGeometry x="1720" y="205" width="120" height="50" as="geometry" />
        </mxCell>
        <mxCell id="xwLTQEsDSrBxXVj2upfY-122" style="edgeStyle=orthogonalEdgeStyle;rounded=1;orthogonalLoop=1;jettySize=auto;html=1;exitX=1;exitY=0.5;exitDx=0;exitDy=0;entryX=0;entryY=0.5;entryDx=0;entryDy=0;sketch=1;curveFitting=1;jiggle=2;" edge="1" parent="1" source="xwLTQEsDSrBxXVj2upfY-54" target="xwLTQEsDSrBxXVj2upfY-53">
          <mxGeometry relative="1" as="geometry" />
        </mxCell>
        <mxCell id="xwLTQEsDSrBxXVj2upfY-54" value="&lt;div&gt;&lt;span style=&quot;font-size: 14px;&quot;&gt;&lt;b&gt;Botão &quot;Fazer pedido&quot;&lt;/b&gt;&lt;/span&gt;&lt;/div&gt;&lt;div&gt;&lt;br&gt;&lt;/div&gt;" style="rounded=1;whiteSpace=wrap;html=1;fillColor=#fff2cc;strokeColor=#d6b656;sketch=1;curveFitting=1;jiggle=2;" vertex="1" parent="1">
          <mxGeometry x="1550" y="205" width="120" height="50" as="geometry" />
        </mxCell>
        <mxCell id="A40qBbhF1JYghewnGqG5-2" style="edgeStyle=orthogonalEdgeStyle;rounded=1;orthogonalLoop=1;jettySize=auto;html=1;exitX=0;exitY=0.5;exitDx=0;exitDy=0;entryX=0.5;entryY=1;entryDx=0;entryDy=0;sketch=1;curveFitting=1;jiggle=2;" edge="1" parent="1" source="xwLTQEsDSrBxXVj2upfY-57" target="xwLTQEsDSrBxXVj2upfY-15">
          <mxGeometry relative="1" as="geometry" />
        </mxCell>
        <mxCell id="xwLTQEsDSrBxXVj2upfY-57" value="&lt;div&gt;&lt;span style=&quot;font-size: 14px;&quot;&gt;&lt;b&gt;Botão &quot;Voltar&quot;&lt;/b&gt;&lt;/span&gt;&lt;/div&gt;&lt;div&gt;&lt;br&gt;&lt;/div&gt;" style="rounded=1;whiteSpace=wrap;html=1;fillColor=#fff2cc;strokeColor=#d6b656;sketch=1;curveFitting=1;jiggle=2;" vertex="1" parent="1">
          <mxGeometry x="1200" y="320" width="120" height="50" as="geometry" />
        </mxCell>
        <mxCell id="xwLTQEsDSrBxXVj2upfY-121" style="edgeStyle=orthogonalEdgeStyle;rounded=1;orthogonalLoop=1;jettySize=auto;html=1;exitX=1;exitY=0.5;exitDx=0;exitDy=0;entryX=0;entryY=0.5;entryDx=0;entryDy=0;sketch=1;curveFitting=1;jiggle=2;" edge="1" parent="1" source="xwLTQEsDSrBxXVj2upfY-58" target="xwLTQEsDSrBxXVj2upfY-54">
          <mxGeometry relative="1" as="geometry" />
        </mxCell>
        <mxCell id="A40qBbhF1JYghewnGqG5-28" style="edgeStyle=orthogonalEdgeStyle;rounded=1;orthogonalLoop=1;jettySize=auto;html=1;exitX=0.5;exitY=0;exitDx=0;exitDy=0;entryX=0.5;entryY=1;entryDx=0;entryDy=0;sketch=1;curveFitting=1;jiggle=2;" edge="1" parent="1" source="xwLTQEsDSrBxXVj2upfY-58" target="xwLTQEsDSrBxXVj2upfY-63">
          <mxGeometry relative="1" as="geometry" />
        </mxCell>
        <mxCell id="A40qBbhF1JYghewnGqG5-30" style="edgeStyle=orthogonalEdgeStyle;rounded=1;orthogonalLoop=1;jettySize=auto;html=1;exitX=0.5;exitY=0;exitDx=0;exitDy=0;entryX=0.5;entryY=1;entryDx=0;entryDy=0;sketch=1;curveFitting=1;jiggle=2;" edge="1" parent="1" source="xwLTQEsDSrBxXVj2upfY-58" target="xwLTQEsDSrBxXVj2upfY-60">
          <mxGeometry relative="1" as="geometry" />
        </mxCell>
        <mxCell id="A40qBbhF1JYghewnGqG5-31" style="edgeStyle=orthogonalEdgeStyle;rounded=1;orthogonalLoop=1;jettySize=auto;html=1;exitX=0.5;exitY=0;exitDx=0;exitDy=0;entryX=0.5;entryY=1;entryDx=0;entryDy=0;sketch=1;curveFitting=1;jiggle=2;" edge="1" parent="1" source="xwLTQEsDSrBxXVj2upfY-58" target="xwLTQEsDSrBxXVj2upfY-62">
          <mxGeometry relative="1" as="geometry" />
        </mxCell>
        <mxCell id="xwLTQEsDSrBxXVj2upfY-58" value="&lt;b&gt;&lt;span style=&quot;font-size: 14px;&quot;&gt;Campos&lt;/span&gt;&lt;br&gt;&lt;font style=&quot;font-size: 10px;&quot;&gt;Alguns são obrigatórios&lt;/font&gt;&lt;/b&gt;" style="rounded=1;whiteSpace=wrap;html=1;fillColor=#fff2cc;strokeColor=#d6b656;sketch=1;curveFitting=1;jiggle=2;" vertex="1" parent="1">
          <mxGeometry x="1370" y="205" width="120" height="50" as="geometry" />
        </mxCell>
        <mxCell id="xwLTQEsDSrBxXVj2upfY-99" style="edgeStyle=orthogonalEdgeStyle;rounded=1;orthogonalLoop=1;jettySize=auto;html=1;exitX=0.5;exitY=0;exitDx=0;exitDy=0;entryX=0.5;entryY=1;entryDx=0;entryDy=0;sketch=1;curveFitting=1;jiggle=2;" edge="1" parent="1" source="xwLTQEsDSrBxXVj2upfY-59" target="xwLTQEsDSrBxXVj2upfY-92">
          <mxGeometry relative="1" as="geometry" />
        </mxCell>
        <mxCell id="xwLTQEsDSrBxXVj2upfY-59" value="&lt;div&gt;&lt;span style=&quot;font-size: 14px;&quot;&gt;&lt;b&gt;Comentário&lt;/b&gt;&lt;/span&gt;&lt;/div&gt;&lt;div&gt;&lt;br&gt;&lt;/div&gt;" style="rounded=1;whiteSpace=wrap;html=1;fillColor=#f5f5f5;fontColor=#333333;strokeColor=#666666;sketch=1;curveFitting=1;jiggle=2;" vertex="1" parent="1">
          <mxGeometry x="1570" y="40" width="120" height="50" as="geometry" />
        </mxCell>
        <mxCell id="xwLTQEsDSrBxXVj2upfY-98" style="edgeStyle=orthogonalEdgeStyle;rounded=1;orthogonalLoop=1;jettySize=auto;html=1;exitX=0.5;exitY=0;exitDx=0;exitDy=0;entryX=0.5;entryY=1;entryDx=0;entryDy=0;sketch=1;curveFitting=1;jiggle=2;" edge="1" parent="1" source="xwLTQEsDSrBxXVj2upfY-60" target="xwLTQEsDSrBxXVj2upfY-93">
          <mxGeometry relative="1" as="geometry" />
        </mxCell>
        <mxCell id="xwLTQEsDSrBxXVj2upfY-60" value="&lt;div&gt;&lt;span style=&quot;font-size: 14px;&quot;&gt;&lt;b&gt;Cor&lt;/b&gt;&lt;/span&gt;&lt;/div&gt;&lt;div&gt;&lt;br&gt;&lt;/div&gt;" style="rounded=1;whiteSpace=wrap;html=1;fillColor=#f5f5f5;fontColor=#333333;strokeColor=#666666;sketch=1;curveFitting=1;jiggle=2;" vertex="1" parent="1">
          <mxGeometry x="1440" y="40" width="120" height="50" as="geometry" />
        </mxCell>
        <mxCell id="xwLTQEsDSrBxXVj2upfY-97" style="edgeStyle=orthogonalEdgeStyle;rounded=1;orthogonalLoop=1;jettySize=auto;html=1;exitX=0.5;exitY=0;exitDx=0;exitDy=0;entryX=0.5;entryY=1;entryDx=0;entryDy=0;sketch=1;curveFitting=1;jiggle=2;" edge="1" parent="1" source="xwLTQEsDSrBxXVj2upfY-62" target="xwLTQEsDSrBxXVj2upfY-94">
          <mxGeometry relative="1" as="geometry" />
        </mxCell>
        <mxCell id="xwLTQEsDSrBxXVj2upfY-62" value="&lt;div&gt;&lt;span style=&quot;font-size: 14px;&quot;&gt;&lt;b&gt;*Período de locação&lt;/b&gt;&lt;/span&gt;&lt;/div&gt;&lt;div&gt;&lt;br&gt;&lt;/div&gt;" style="rounded=1;whiteSpace=wrap;html=1;fillColor=#f5f5f5;fontColor=#333333;strokeColor=#666666;sketch=1;curveFitting=1;jiggle=2;" vertex="1" parent="1">
          <mxGeometry x="1300" y="40" width="120" height="50" as="geometry" />
        </mxCell>
        <mxCell id="xwLTQEsDSrBxXVj2upfY-96" style="edgeStyle=orthogonalEdgeStyle;rounded=1;orthogonalLoop=1;jettySize=auto;html=1;exitX=0.5;exitY=0;exitDx=0;exitDy=0;entryX=0.5;entryY=1;entryDx=0;entryDy=0;sketch=1;curveFitting=1;jiggle=2;" edge="1" parent="1" source="xwLTQEsDSrBxXVj2upfY-63" target="xwLTQEsDSrBxXVj2upfY-95">
          <mxGeometry relative="1" as="geometry" />
        </mxCell>
        <mxCell id="xwLTQEsDSrBxXVj2upfY-63" value="&lt;span style=&quot;font-size: 14px;&quot;&gt;&lt;b&gt;*Quando entregar a scooter&lt;/b&gt;&lt;/span&gt;" style="rounded=1;whiteSpace=wrap;html=1;fillColor=#f5f5f5;fontColor=#333333;strokeColor=#666666;sketch=1;curveFitting=1;jiggle=2;" vertex="1" parent="1">
          <mxGeometry x="1169" y="40" width="120" height="50" as="geometry" />
        </mxCell>
        <mxCell id="xwLTQEsDSrBxXVj2upfY-64" value="&lt;div style=&quot;font-size: 11px;&quot;&gt;&lt;font style=&quot;font-size: 11px;&quot;&gt;As informações são salvas ao alternar entre páginas&lt;/font&gt;&lt;/div&gt;&lt;div style=&quot;font-size: 11px;&quot;&gt;&lt;br&gt;&lt;/div&gt;" style="rounded=1;whiteSpace=wrap;html=1;fillColor=#f5f5f5;fontColor=#333333;strokeColor=#666666;sketch=1;curveFitting=1;jiggle=2;" vertex="1" parent="1">
          <mxGeometry x="1040" y="110" width="120" height="50" as="geometry" />
        </mxCell>
        <mxCell id="xwLTQEsDSrBxXVj2upfY-92" value="&lt;div style=&quot;&quot;&gt;&lt;span style=&quot;text-wrap: nowrap;&quot;&gt;Campo opcional&lt;/span&gt;&lt;br&gt;&lt;/div&gt;" style="rounded=1;whiteSpace=wrap;html=1;fillColor=#d5e8d4;strokeColor=#82b366;sketch=1;curveFitting=1;jiggle=2;" vertex="1" parent="1">
          <mxGeometry x="1570" y="-50" width="120" height="50" as="geometry" />
        </mxCell>
        <mxCell id="xwLTQEsDSrBxXVj2upfY-93" value="&lt;div style=&quot;&quot;&gt;&lt;span style=&quot;text-wrap: nowrap;&quot;&gt;Campo opcional&lt;/span&gt;&lt;br&gt;&lt;/div&gt;" style="rounded=1;whiteSpace=wrap;html=1;fillColor=#d5e8d4;strokeColor=#82b366;sketch=1;curveFitting=1;jiggle=2;" vertex="1" parent="1">
          <mxGeometry x="1440" y="-50" width="120" height="50" as="geometry" />
        </mxCell>
        <mxCell id="xwLTQEsDSrBxXVj2upfY-94" value="&lt;div style=&quot;&quot;&gt;&lt;span style=&quot;text-wrap: nowrap;&quot;&gt;* Campo obrigatório&lt;/span&gt;&lt;br&gt;&lt;/div&gt;" style="rounded=1;whiteSpace=wrap;html=1;fillColor=#f8cecc;strokeColor=#b85450;sketch=1;curveFitting=1;jiggle=2;" vertex="1" parent="1">
          <mxGeometry x="1300" y="-50" width="120" height="50" as="geometry" />
        </mxCell>
        <mxCell id="xwLTQEsDSrBxXVj2upfY-95" value="&lt;div style=&quot;&quot;&gt;&lt;span style=&quot;text-wrap: nowrap;&quot;&gt;* Campo obrigatório&lt;/span&gt;&lt;br&gt;&lt;/div&gt;" style="rounded=1;whiteSpace=wrap;html=1;fillColor=#f8cecc;strokeColor=#b85450;sketch=1;curveFitting=1;jiggle=2;" vertex="1" parent="1">
          <mxGeometry x="1169" y="-50" width="120" height="50" as="geometry" />
        </mxCell>
        <mxCell id="yZe3crOF32BxjWn64IId-69" style="edgeStyle=orthogonalEdgeStyle;rounded=1;orthogonalLoop=1;jettySize=auto;html=1;exitX=0.5;exitY=1;exitDx=0;exitDy=0;entryX=0.5;entryY=0;entryDx=0;entryDy=0;sketch=1;curveFitting=1;jiggle=2;" edge="1" parent="1" source="4OGGrObzPnIqFQcxXqdj-7" target="4OGGrObzPnIqFQcxXqdj-14">
          <mxGeometry relative="1" as="geometry" />
        </mxCell>
        <mxCell id="4OGGrObzPnIqFQcxXqdj-7" value="&lt;br&gt;&lt;span style=&quot;color: rgb(0, 0, 0); font-family: Helvetica; font-size: 12px; font-style: normal; font-variant-ligatures: normal; font-variant-caps: normal; font-weight: 400; letter-spacing: normal; orphans: 2; text-align: left; text-indent: 0px; text-transform: none; widows: 2; word-spacing: 0px; -webkit-text-stroke-width: 0px; white-space: normal; background-color: rgb(251, 251, 251); text-decoration-thickness: initial; text-decoration-style: initial; text-decoration-color: initial; display: inline !important; float: none;&quot;&gt;Botão&lt;/span&gt;&lt;br style=&quot;color: rgb(0, 0, 0); font-family: Helvetica; font-size: 12px; font-style: normal; font-variant-ligatures: normal; font-variant-caps: normal; font-weight: 400; letter-spacing: normal; orphans: 2; text-align: left; text-indent: 0px; text-transform: none; widows: 2; word-spacing: 0px; -webkit-text-stroke-width: 0px; white-space: normal; background-color: rgb(251, 251, 251); text-decoration-thickness: initial; text-decoration-style: initial; text-decoration-color: initial;&quot;&gt;&lt;span style=&quot;color: rgb(0, 0, 0); font-family: Helvetica; font-size: 12px; font-style: normal; font-variant-ligatures: normal; font-variant-caps: normal; font-weight: 400; letter-spacing: normal; orphans: 2; text-align: left; text-indent: 0px; text-transform: none; widows: 2; word-spacing: 0px; -webkit-text-stroke-width: 0px; white-space: normal; background-color: rgb(251, 251, 251); text-decoration-thickness: initial; text-decoration-style: initial; text-decoration-color: initial; display: inline !important; float: none;&quot;&gt;Avançar&lt;/span&gt;&lt;div&gt;&lt;br/&gt;&lt;/div&gt;" style="rounded=1;whiteSpace=wrap;html=1;fillColor=#d5e8d4;strokeColor=#82b366;sketch=1;curveFitting=1;jiggle=2;" vertex="1" parent="1">
          <mxGeometry x="-322.5" y="340" width="120" height="50" as="geometry" />
        </mxCell>
        <mxCell id="yZe3crOF32BxjWn64IId-49" style="edgeStyle=orthogonalEdgeStyle;rounded=1;orthogonalLoop=1;jettySize=auto;html=1;exitX=0.5;exitY=0;exitDx=0;exitDy=0;entryX=0.5;entryY=1;entryDx=0;entryDy=0;sketch=1;curveFitting=1;jiggle=2;" edge="1" parent="1" source="4OGGrObzPnIqFQcxXqdj-8" target="yZe3crOF32BxjWn64IId-44">
          <mxGeometry relative="1" as="geometry" />
        </mxCell>
        <mxCell id="4OGGrObzPnIqFQcxXqdj-8" value="&#xa;&lt;span style=&quot;color: rgb(0, 0, 0); font-family: Helvetica; font-size: 12px; font-style: normal; font-variant-ligatures: normal; font-variant-caps: normal; font-weight: 400; letter-spacing: normal; orphans: 2; text-align: left; text-indent: 0px; text-transform: none; widows: 2; word-spacing: 0px; -webkit-text-stroke-width: 0px; white-space: normal; background-color: rgb(251, 251, 251); text-decoration-thickness: initial; text-decoration-style: initial; text-decoration-color: initial; display: inline !important; float: none;&quot;&gt;Estação de metrô&lt;/span&gt;&#xa;&#xa;" style="rounded=1;whiteSpace=wrap;html=1;sketch=1;curveFitting=1;jiggle=2;" vertex="1" parent="1">
          <mxGeometry x="-870" y="40" width="120" height="50" as="geometry" />
        </mxCell>
        <mxCell id="yZe3crOF32BxjWn64IId-48" style="edgeStyle=orthogonalEdgeStyle;rounded=1;orthogonalLoop=1;jettySize=auto;html=1;exitX=0.5;exitY=0;exitDx=0;exitDy=0;sketch=1;curveFitting=1;jiggle=2;" edge="1" parent="1" source="4OGGrObzPnIqFQcxXqdj-9" target="yZe3crOF32BxjWn64IId-43">
          <mxGeometry relative="1" as="geometry" />
        </mxCell>
        <mxCell id="4OGGrObzPnIqFQcxXqdj-9" value="&#xa;&lt;span style=&quot;color: rgb(0, 0, 0); font-family: Helvetica; font-size: 12px; font-style: normal; font-variant-ligatures: normal; font-variant-caps: normal; font-weight: 400; letter-spacing: normal; orphans: 2; text-align: left; text-indent: 0px; text-transform: none; widows: 2; word-spacing: 0px; -webkit-text-stroke-width: 0px; white-space: normal; background-color: rgb(251, 251, 251); text-decoration-thickness: initial; text-decoration-style: initial; text-decoration-color: initial; display: inline !important; float: none;&quot;&gt;Endereço&lt;/span&gt;&#xa;&#xa;" style="rounded=1;whiteSpace=wrap;html=1;sketch=1;curveFitting=1;jiggle=2;" vertex="1" parent="1">
          <mxGeometry x="-1000" y="40" width="120" height="50" as="geometry" />
        </mxCell>
        <mxCell id="yZe3crOF32BxjWn64IId-50" style="edgeStyle=orthogonalEdgeStyle;rounded=1;orthogonalLoop=1;jettySize=auto;html=1;exitX=0.5;exitY=0;exitDx=0;exitDy=0;entryX=0.5;entryY=1;entryDx=0;entryDy=0;sketch=1;curveFitting=1;jiggle=2;" edge="1" parent="1" source="4OGGrObzPnIqFQcxXqdj-11" target="yZe3crOF32BxjWn64IId-45">
          <mxGeometry relative="1" as="geometry" />
        </mxCell>
        <mxCell id="4OGGrObzPnIqFQcxXqdj-11" value="&#xa;&lt;span style=&quot;color: rgb(0, 0, 0); font-family: Helvetica; font-size: 12px; font-style: normal; font-variant-ligatures: normal; font-variant-caps: normal; font-weight: 400; letter-spacing: normal; orphans: 2; text-align: left; text-indent: 0px; text-transform: none; widows: 2; word-spacing: 0px; -webkit-text-stroke-width: 0px; white-space: normal; background-color: rgb(251, 251, 251); text-decoration-thickness: initial; text-decoration-style: initial; text-decoration-color: initial; display: inline !important; float: none;&quot;&gt;Telefone&lt;/span&gt;&#xa;&#xa;" style="rounded=1;whiteSpace=wrap;html=1;sketch=1;curveFitting=1;jiggle=2;" vertex="1" parent="1">
          <mxGeometry x="-740" y="40" width="120" height="50" as="geometry" />
        </mxCell>
        <mxCell id="yZe3crOF32BxjWn64IId-46" style="edgeStyle=orthogonalEdgeStyle;rounded=1;orthogonalLoop=1;jettySize=auto;html=1;exitX=0.5;exitY=0;exitDx=0;exitDy=0;entryX=0.5;entryY=1;entryDx=0;entryDy=0;sketch=1;curveFitting=1;jiggle=2;" edge="1" parent="1" source="4OGGrObzPnIqFQcxXqdj-12" target="yZe3crOF32BxjWn64IId-40">
          <mxGeometry relative="1" as="geometry" />
        </mxCell>
        <mxCell id="4OGGrObzPnIqFQcxXqdj-12" value="&#xa;&lt;span style=&quot;color: rgb(0, 0, 0); font-family: Helvetica; font-size: 12px; font-style: normal; font-variant-ligatures: normal; font-variant-caps: normal; font-weight: 400; letter-spacing: normal; orphans: 2; text-align: left; text-indent: 0px; text-transform: none; widows: 2; word-spacing: 0px; -webkit-text-stroke-width: 0px; white-space: normal; background-color: rgb(251, 251, 251); text-decoration-thickness: initial; text-decoration-style: initial; text-decoration-color: initial; display: inline !important; float: none;&quot;&gt;Nome&lt;/span&gt;&#xa;&#xa;" style="rounded=1;whiteSpace=wrap;html=1;sketch=1;curveFitting=1;jiggle=2;" vertex="1" parent="1">
          <mxGeometry x="-1260" y="40" width="120" height="50" as="geometry" />
        </mxCell>
        <mxCell id="yZe3crOF32BxjWn64IId-103" style="edgeStyle=orthogonalEdgeStyle;rounded=1;orthogonalLoop=1;jettySize=auto;html=1;exitX=0.5;exitY=1;exitDx=0;exitDy=0;entryX=0.5;entryY=0;entryDx=0;entryDy=0;sketch=1;curveFitting=1;jiggle=2;" edge="1" parent="1" source="4OGGrObzPnIqFQcxXqdj-13" target="yZe3crOF32BxjWn64IId-99">
          <mxGeometry relative="1" as="geometry" />
        </mxCell>
        <mxCell id="4OGGrObzPnIqFQcxXqdj-13" value="&#xa;&lt;span style=&quot;color: rgb(0, 0, 0); font-family: Helvetica; font-size: 12px; font-style: normal; font-variant-ligatures: normal; font-variant-caps: normal; font-weight: 400; letter-spacing: normal; orphans: 2; text-align: left; text-indent: 0px; text-transform: none; widows: 2; word-spacing: 0px; -webkit-text-stroke-width: 0px; white-space: normal; background-color: rgb(251, 251, 251); text-decoration-thickness: initial; text-decoration-style: initial; text-decoration-color: initial; display: inline !important; float: none;&quot;&gt;A cor da scooter&lt;/span&gt;&#xa;&#xa;" style="rounded=1;whiteSpace=wrap;html=1;sketch=1;curveFitting=1;jiggle=2;" vertex="1" parent="1">
          <mxGeometry x="-920" y="519" width="120" height="50" as="geometry" />
        </mxCell>
        <mxCell id="yZe3crOF32BxjWn64IId-70" style="edgeStyle=orthogonalEdgeStyle;rounded=1;orthogonalLoop=1;jettySize=auto;html=1;exitX=0;exitY=0.5;exitDx=0;exitDy=0;entryX=1;entryY=0.5;entryDx=0;entryDy=0;sketch=1;curveFitting=1;jiggle=2;" edge="1" parent="1" source="4OGGrObzPnIqFQcxXqdj-14" target="4OGGrObzPnIqFQcxXqdj-16">
          <mxGeometry relative="1" as="geometry" />
        </mxCell>
        <mxCell id="A40qBbhF1JYghewnGqG5-9" style="edgeStyle=orthogonalEdgeStyle;rounded=1;orthogonalLoop=1;jettySize=auto;html=1;exitX=0.5;exitY=1;exitDx=0;exitDy=0;entryX=0.5;entryY=0;entryDx=0;entryDy=0;sketch=1;curveFitting=1;jiggle=2;" edge="1" parent="1" source="4OGGrObzPnIqFQcxXqdj-14" target="4OGGrObzPnIqFQcxXqdj-37">
          <mxGeometry relative="1" as="geometry" />
        </mxCell>
        <mxCell id="A40qBbhF1JYghewnGqG5-10" style="edgeStyle=orthogonalEdgeStyle;rounded=1;orthogonalLoop=1;jettySize=auto;html=1;exitX=0.5;exitY=1;exitDx=0;exitDy=0;sketch=1;curveFitting=1;jiggle=2;" edge="1" parent="1" source="4OGGrObzPnIqFQcxXqdj-14" target="4OGGrObzPnIqFQcxXqdj-38">
          <mxGeometry relative="1" as="geometry" />
        </mxCell>
        <mxCell id="4OGGrObzPnIqFQcxXqdj-14" value="&#xa;&lt;span style=&quot;color: rgb(0, 0, 0); font-family: Helvetica; font-size: 12px; font-style: normal; font-variant-ligatures: normal; font-variant-caps: normal; font-weight: 400; letter-spacing: normal; orphans: 2; text-align: left; text-indent: 0px; text-transform: none; widows: 2; word-spacing: 0px; -webkit-text-stroke-width: 0px; white-space: normal; background-color: rgb(251, 251, 251); text-decoration-thickness: initial; text-decoration-style: initial; text-decoration-color: initial; display: inline !important; float: none;&quot;&gt;Página de Locação&lt;/span&gt;&#xa;&#xa;" style="rounded=1;whiteSpace=wrap;html=1;fillColor=#f5f5f5;fontColor=#333333;strokeColor=#666666;sketch=1;curveFitting=1;jiggle=2;" vertex="1" parent="1">
          <mxGeometry x="-325" y="450" width="125" height="50" as="geometry" />
        </mxCell>
        <mxCell id="yZe3crOF32BxjWn64IId-73" style="edgeStyle=orthogonalEdgeStyle;rounded=1;orthogonalLoop=1;jettySize=auto;html=1;exitX=0;exitY=0.5;exitDx=0;exitDy=0;sketch=1;curveFitting=1;jiggle=2;" edge="1" parent="1" source="4OGGrObzPnIqFQcxXqdj-16" target="4OGGrObzPnIqFQcxXqdj-18">
          <mxGeometry relative="1" as="geometry" />
        </mxCell>
        <mxCell id="4OGGrObzPnIqFQcxXqdj-16" value="&lt;br&gt;&lt;span style=&quot;color: rgb(0, 0, 0); font-family: Helvetica; font-size: 12px; font-style: normal; font-variant-ligatures: normal; font-variant-caps: normal; font-weight: 400; letter-spacing: normal; orphans: 2; text-align: left; text-indent: 0px; text-transform: none; widows: 2; word-spacing: 0px; -webkit-text-stroke-width: 0px; white-space: normal; background-color: rgb(251, 251, 251); text-decoration-thickness: initial; text-decoration-style: initial; text-decoration-color: initial; display: inline !important; float: none;&quot;&gt;&lt;span&gt;&amp;nbsp;&lt;/span&gt;Título:&lt;br&gt;&lt;/span&gt;&quot;Locação&quot;&lt;div&gt;&lt;br&gt;&lt;/div&gt;" style="rounded=1;whiteSpace=wrap;html=1;fillColor=#d5e8d4;strokeColor=#82b366;sketch=1;curveFitting=1;jiggle=2;" vertex="1" parent="1">
          <mxGeometry x="-660" y="420" width="120" height="50" as="geometry" />
        </mxCell>
        <mxCell id="yZe3crOF32BxjWn64IId-47" style="edgeStyle=orthogonalEdgeStyle;rounded=1;orthogonalLoop=1;jettySize=auto;html=1;exitX=0.5;exitY=0;exitDx=0;exitDy=0;entryX=0.5;entryY=1;entryDx=0;entryDy=0;sketch=1;curveFitting=1;jiggle=2;" edge="1" parent="1" source="4OGGrObzPnIqFQcxXqdj-17" target="yZe3crOF32BxjWn64IId-42">
          <mxGeometry relative="1" as="geometry" />
        </mxCell>
        <mxCell id="4OGGrObzPnIqFQcxXqdj-17" value="&#xa;&lt;span style=&quot;color: rgb(0, 0, 0); font-family: Helvetica; font-size: 12px; font-style: normal; font-variant-ligatures: normal; font-variant-caps: normal; font-weight: 400; letter-spacing: normal; orphans: 2; text-align: left; text-indent: 0px; text-transform: none; widows: 2; word-spacing: 0px; -webkit-text-stroke-width: 0px; white-space: normal; background-color: rgb(251, 251, 251); text-decoration-thickness: initial; text-decoration-style: initial; text-decoration-color: initial; display: inline !important; float: none;&quot;&gt;Sobrenome&lt;/span&gt;&#xa;&#xa;" style="rounded=1;whiteSpace=wrap;html=1;sketch=1;curveFitting=1;jiggle=2;" vertex="1" parent="1">
          <mxGeometry x="-1130" y="40" width="120" height="50" as="geometry" />
        </mxCell>
        <mxCell id="A40qBbhF1JYghewnGqG5-18" style="edgeStyle=orthogonalEdgeStyle;rounded=1;orthogonalLoop=1;jettySize=auto;html=1;exitX=0.5;exitY=1;exitDx=0;exitDy=0;sketch=1;curveFitting=1;jiggle=2;" edge="1" parent="1" source="4OGGrObzPnIqFQcxXqdj-18" target="4OGGrObzPnIqFQcxXqdj-19">
          <mxGeometry relative="1" as="geometry" />
        </mxCell>
        <mxCell id="A40qBbhF1JYghewnGqG5-19" style="edgeStyle=orthogonalEdgeStyle;rounded=1;orthogonalLoop=1;jettySize=auto;html=1;exitX=0.5;exitY=1;exitDx=0;exitDy=0;sketch=1;curveFitting=1;jiggle=2;" edge="1" parent="1" source="4OGGrObzPnIqFQcxXqdj-18" target="4OGGrObzPnIqFQcxXqdj-36">
          <mxGeometry relative="1" as="geometry" />
        </mxCell>
        <mxCell id="A40qBbhF1JYghewnGqG5-20" style="edgeStyle=orthogonalEdgeStyle;rounded=1;orthogonalLoop=1;jettySize=auto;html=1;exitX=0.5;exitY=1;exitDx=0;exitDy=0;sketch=1;curveFitting=1;jiggle=2;" edge="1" parent="1" source="4OGGrObzPnIqFQcxXqdj-18" target="4OGGrObzPnIqFQcxXqdj-41">
          <mxGeometry relative="1" as="geometry" />
        </mxCell>
        <mxCell id="A40qBbhF1JYghewnGqG5-21" style="edgeStyle=orthogonalEdgeStyle;rounded=1;orthogonalLoop=1;jettySize=auto;html=1;exitX=0.5;exitY=1;exitDx=0;exitDy=0;entryX=0.5;entryY=0;entryDx=0;entryDy=0;sketch=1;curveFitting=1;jiggle=2;" edge="1" parent="1" source="4OGGrObzPnIqFQcxXqdj-18" target="4OGGrObzPnIqFQcxXqdj-13">
          <mxGeometry relative="1" as="geometry" />
        </mxCell>
        <mxCell id="4OGGrObzPnIqFQcxXqdj-18" value="&#xa;&lt;span style=&quot;color: rgb(0, 0, 0); font-family: Helvetica; font-size: 12px; font-style: normal; font-variant-ligatures: normal; font-variant-caps: normal; font-weight: 400; letter-spacing: normal; orphans: 2; text-align: left; text-indent: 0px; text-transform: none; widows: 2; word-spacing: 0px; -webkit-text-stroke-width: 0px; white-space: normal; background-color: rgb(251, 251, 251); text-decoration-thickness: initial; text-decoration-style: initial; text-decoration-color: initial; display: inline !important; float: none;&quot;&gt;Formulário&lt;/span&gt;&#xa;&#xa;" style="rounded=1;whiteSpace=wrap;html=1;fillColor=#fff2cc;strokeColor=#d6b656;sketch=1;curveFitting=1;jiggle=2;" vertex="1" parent="1">
          <mxGeometry x="-1000" y="420" width="120" height="50" as="geometry" />
        </mxCell>
        <mxCell id="yZe3crOF32BxjWn64IId-101" style="edgeStyle=orthogonalEdgeStyle;rounded=1;orthogonalLoop=1;jettySize=auto;html=1;exitX=0.5;exitY=1;exitDx=0;exitDy=0;sketch=1;curveFitting=1;jiggle=2;" edge="1" parent="1" source="4OGGrObzPnIqFQcxXqdj-19" target="yZe3crOF32BxjWn64IId-91">
          <mxGeometry relative="1" as="geometry" />
        </mxCell>
        <mxCell id="4OGGrObzPnIqFQcxXqdj-19" value="&#xa;&lt;span style=&quot;color: rgb(0, 0, 0); font-family: Helvetica; font-size: 12px; font-style: normal; font-variant-ligatures: normal; font-variant-caps: normal; font-weight: 400; letter-spacing: normal; orphans: 2; text-align: left; text-indent: 0px; text-transform: none; widows: 2; word-spacing: 0px; -webkit-text-stroke-width: 0px; white-space: normal; background-color: rgb(251, 251, 251); text-decoration-thickness: initial; text-decoration-style: initial; text-decoration-color: initial; display: inline !important; float: none;&quot;&gt;Quando entregar a scooter&lt;/span&gt;&#xa;&#xa;" style="rounded=1;whiteSpace=wrap;html=1;sketch=1;curveFitting=1;jiggle=2;" vertex="1" parent="1">
          <mxGeometry x="-1180" y="519" width="120" height="50" as="geometry" />
        </mxCell>
        <mxCell id="A40qBbhF1JYghewnGqG5-12" style="edgeStyle=orthogonalEdgeStyle;rounded=1;orthogonalLoop=1;jettySize=auto;html=1;exitX=0;exitY=0.5;exitDx=0;exitDy=0;entryX=1;entryY=0.5;entryDx=0;entryDy=0;sketch=1;curveFitting=1;jiggle=2;" edge="1" parent="1" source="4OGGrObzPnIqFQcxXqdj-21" target="4OGGrObzPnIqFQcxXqdj-26">
          <mxGeometry relative="1" as="geometry" />
        </mxCell>
        <mxCell id="4OGGrObzPnIqFQcxXqdj-21" value="&lt;font style=&quot;font-size: 11px;&quot;&gt;&lt;br&gt;&lt;span style=&quot;color: rgb(0, 0, 0); font-family: Helvetica; font-style: normal; font-variant-ligatures: normal; font-variant-caps: normal; font-weight: 400; letter-spacing: normal; orphans: 2; text-align: left; text-indent: 0px; text-transform: none; widows: 2; word-spacing: 0px; -webkit-text-stroke-width: 0px; white-space: normal; background-color: rgb(251, 251, 251); text-decoration-thickness: initial; text-decoration-style: initial; text-decoration-color: initial; float: none; display: inline !important;&quot;&gt;Título:&lt;br&gt;&lt;/span&gt;&quot;Para quem é a scoter&quot;&lt;br&gt;Cor: Preta Local: centralizado&amp;nbsp;&lt;br&gt;&lt;/font&gt;&lt;div style=&quot;font-size: 11px;&quot;&gt;&lt;br&gt;&lt;/div&gt;" style="rounded=1;whiteSpace=wrap;html=1;fillColor=#d5e8d4;strokeColor=#82b366;sketch=1;curveFitting=1;jiggle=2;" vertex="1" parent="1">
          <mxGeometry x="-640" y="212.5" width="130" height="75" as="geometry" />
        </mxCell>
        <mxCell id="yZe3crOF32BxjWn64IId-13" style="edgeStyle=orthogonalEdgeStyle;rounded=1;orthogonalLoop=1;jettySize=auto;html=1;exitX=1;exitY=0.5;exitDx=0;exitDy=0;entryX=0.5;entryY=1;entryDx=0;entryDy=0;sketch=1;curveFitting=1;jiggle=2;" edge="1" parent="1" source="4OGGrObzPnIqFQcxXqdj-24" target="yZe3crOF32BxjWn64IId-12">
          <mxGeometry relative="1" as="geometry" />
        </mxCell>
        <mxCell id="yZe3crOF32BxjWn64IId-28" style="edgeStyle=orthogonalEdgeStyle;rounded=1;orthogonalLoop=1;jettySize=auto;html=1;exitX=0;exitY=0.5;exitDx=0;exitDy=0;entryX=0.5;entryY=1;entryDx=0;entryDy=0;sketch=1;curveFitting=1;jiggle=2;" edge="1" parent="1" source="4OGGrObzPnIqFQcxXqdj-24" target="yZe3crOF32BxjWn64IId-23">
          <mxGeometry relative="1" as="geometry" />
        </mxCell>
        <mxCell id="4OGGrObzPnIqFQcxXqdj-24" value="&#xa;&lt;span style=&quot;color: rgb(0, 0, 0); font-family: Helvetica; font-size: 12px; font-style: normal; font-variant-ligatures: normal; font-variant-caps: normal; font-weight: 400; letter-spacing: normal; orphans: 2; text-align: left; text-indent: 0px; text-transform: none; widows: 2; word-spacing: 0px; -webkit-text-stroke-width: 0px; white-space: normal; background-color: rgb(251, 251, 251); text-decoration-thickness: initial; text-decoration-style: initial; text-decoration-color: initial; display: inline !important; float: none;&quot;&gt;Menu Superior&lt;/span&gt;&#xa;&#xa;" style="rounded=1;whiteSpace=wrap;html=1;fillColor=#d5e8d4;strokeColor=#82b366;sketch=1;curveFitting=1;jiggle=2;" vertex="1" parent="1">
          <mxGeometry x="-320" y="120" width="120" height="50" as="geometry" />
        </mxCell>
        <mxCell id="A40qBbhF1JYghewnGqG5-13" style="edgeStyle=orthogonalEdgeStyle;rounded=1;orthogonalLoop=1;jettySize=auto;html=1;exitX=0.5;exitY=0;exitDx=0;exitDy=0;entryX=0.5;entryY=1;entryDx=0;entryDy=0;sketch=1;curveFitting=1;jiggle=2;" edge="1" parent="1" source="4OGGrObzPnIqFQcxXqdj-26" target="4OGGrObzPnIqFQcxXqdj-11">
          <mxGeometry relative="1" as="geometry" />
        </mxCell>
        <mxCell id="A40qBbhF1JYghewnGqG5-14" style="edgeStyle=orthogonalEdgeStyle;rounded=1;orthogonalLoop=1;jettySize=auto;html=1;exitX=0.5;exitY=0;exitDx=0;exitDy=0;sketch=1;curveFitting=1;jiggle=2;" edge="1" parent="1" source="4OGGrObzPnIqFQcxXqdj-26" target="4OGGrObzPnIqFQcxXqdj-12">
          <mxGeometry relative="1" as="geometry" />
        </mxCell>
        <mxCell id="A40qBbhF1JYghewnGqG5-15" style="edgeStyle=orthogonalEdgeStyle;rounded=1;orthogonalLoop=1;jettySize=auto;html=1;exitX=0.5;exitY=0;exitDx=0;exitDy=0;entryX=0.5;entryY=1;entryDx=0;entryDy=0;sketch=1;curveFitting=1;jiggle=2;" edge="1" parent="1" source="4OGGrObzPnIqFQcxXqdj-26" target="4OGGrObzPnIqFQcxXqdj-17">
          <mxGeometry relative="1" as="geometry" />
        </mxCell>
        <mxCell id="A40qBbhF1JYghewnGqG5-16" style="edgeStyle=orthogonalEdgeStyle;rounded=1;orthogonalLoop=1;jettySize=auto;html=1;exitX=0.5;exitY=0;exitDx=0;exitDy=0;entryX=0.5;entryY=1;entryDx=0;entryDy=0;sketch=1;curveFitting=1;jiggle=2;" edge="1" parent="1" source="4OGGrObzPnIqFQcxXqdj-26" target="4OGGrObzPnIqFQcxXqdj-8">
          <mxGeometry relative="1" as="geometry" />
        </mxCell>
        <mxCell id="A40qBbhF1JYghewnGqG5-17" style="edgeStyle=orthogonalEdgeStyle;rounded=1;orthogonalLoop=1;jettySize=auto;html=1;exitX=0.5;exitY=0;exitDx=0;exitDy=0;entryX=0.5;entryY=1;entryDx=0;entryDy=0;sketch=1;curveFitting=1;jiggle=2;" edge="1" parent="1" source="4OGGrObzPnIqFQcxXqdj-26" target="4OGGrObzPnIqFQcxXqdj-9">
          <mxGeometry relative="1" as="geometry" />
        </mxCell>
        <mxCell id="4OGGrObzPnIqFQcxXqdj-26" value="&lt;br&gt;&lt;span style=&quot;color: rgb(0, 0, 0); font-family: Helvetica; font-size: 12px; font-style: normal; font-variant-ligatures: normal; font-variant-caps: normal; font-weight: 400; letter-spacing: normal; orphans: 2; text-align: left; text-indent: 0px; text-transform: none; widows: 2; word-spacing: 0px; -webkit-text-stroke-width: 0px; white-space: normal; background-color: rgb(251, 251, 251); text-decoration-thickness: initial; text-decoration-style: initial; text-decoration-color: initial; display: inline !important; float: none;&quot;&gt;Formulário&lt;br&gt;&lt;/span&gt;&lt;br&gt;&lt;div&gt;&lt;br&gt;&lt;/div&gt;" style="rounded=1;whiteSpace=wrap;html=1;fillColor=#fff2cc;strokeColor=#d6b656;sketch=1;curveFitting=1;jiggle=2;" vertex="1" parent="1">
          <mxGeometry x="-1000" y="225" width="120" height="50" as="geometry" />
        </mxCell>
        <mxCell id="4OGGrObzPnIqFQcxXqdj-28" value="&lt;br&gt;&lt;span style=&quot;color: rgb(0, 0, 0); font-family: Helvetica; font-size: 12px; font-style: normal; font-variant-ligatures: normal; font-variant-caps: normal; font-weight: 400; letter-spacing: normal; orphans: 2; text-align: left; text-indent: 0px; text-transform: none; widows: 2; word-spacing: 0px; -webkit-text-stroke-width: 0px; white-space: normal; background-color: rgb(251, 251, 251); text-decoration-thickness: initial; text-decoration-style: initial; text-decoration-color: initial; display: inline !important; float: none;&quot;&gt;Status do pedido&lt;/span&gt;&lt;br&gt;Cor: Branco" style="rounded=1;whiteSpace=wrap;html=1;sketch=1;curveFitting=1;jiggle=2;" vertex="1" parent="1">
          <mxGeometry x="-90" y="-60" width="120" height="50" as="geometry" />
        </mxCell>
        <mxCell id="yZe3crOF32BxjWn64IId-127" style="edgeStyle=orthogonalEdgeStyle;rounded=1;orthogonalLoop=1;jettySize=auto;html=1;exitX=0.5;exitY=0;exitDx=0;exitDy=0;entryX=0.5;entryY=1;entryDx=0;entryDy=0;sketch=1;curveFitting=1;jiggle=2;" edge="1" parent="1" source="4OGGrObzPnIqFQcxXqdj-29" target="yZe3crOF32BxjWn64IId-126">
          <mxGeometry relative="1" as="geometry" />
        </mxCell>
        <mxCell id="4OGGrObzPnIqFQcxXqdj-29" value="&lt;span style=&quot;text-align: left;&quot;&gt;Fazer pedido&lt;/span&gt;&lt;div&gt;&lt;span style=&quot;text-align: left;&quot;&gt;Cor: Branca&lt;br&gt;Fundo: preto&lt;/span&gt;&lt;/div&gt;" style="rounded=1;whiteSpace=wrap;html=1;sketch=1;curveFitting=1;jiggle=2;" vertex="1" parent="1">
          <mxGeometry x="-220" y="-60" width="120" height="50" as="geometry" />
        </mxCell>
        <mxCell id="yZe3crOF32BxjWn64IId-104" style="edgeStyle=orthogonalEdgeStyle;rounded=1;orthogonalLoop=1;jettySize=auto;html=1;exitX=0.5;exitY=1;exitDx=0;exitDy=0;entryX=0.5;entryY=0;entryDx=0;entryDy=0;sketch=1;curveFitting=1;jiggle=2;" edge="1" parent="1" source="4OGGrObzPnIqFQcxXqdj-36" target="yZe3crOF32BxjWn64IId-100">
          <mxGeometry relative="1" as="geometry" />
        </mxCell>
        <mxCell id="4OGGrObzPnIqFQcxXqdj-36" value="&#xa;&lt;span style=&quot;color: rgb(0, 0, 0); font-family: Helvetica; font-size: 12px; font-style: normal; font-variant-ligatures: normal; font-variant-caps: normal; font-weight: 400; letter-spacing: normal; orphans: 2; text-align: left; text-indent: 0px; text-transform: none; widows: 2; word-spacing: 0px; -webkit-text-stroke-width: 0px; white-space: normal; background-color: rgb(251, 251, 251); text-decoration-thickness: initial; text-decoration-style: initial; text-decoration-color: initial; display: inline !important; float: none;&quot;&gt;Comentário para o entregador&lt;/span&gt;&#xa;&#xa;" style="rounded=1;whiteSpace=wrap;html=1;sketch=1;curveFitting=1;jiggle=2;" vertex="1" parent="1">
          <mxGeometry x="-790" y="519" width="120" height="50" as="geometry" />
        </mxCell>
        <mxCell id="4OGGrObzPnIqFQcxXqdj-37" value="&lt;span style=&quot;text-align: left;&quot;&gt;&amp;nbsp; &amp;nbsp; &amp;nbsp; &amp;nbsp; &amp;nbsp; &amp;nbsp; &amp;nbsp; &amp;nbsp; &amp;nbsp; &amp;nbsp; &amp;nbsp; &amp;nbsp; &amp;nbsp; &amp;nbsp; &amp;nbsp; &amp;nbsp; &amp;nbsp; &amp;nbsp; &amp;nbsp; &amp;nbsp; &amp;nbsp; &amp;nbsp; &amp;nbsp; &amp;nbsp; &amp;nbsp; &amp;nbsp; &amp;nbsp; &amp;nbsp; &amp;nbsp; &amp;nbsp; &amp;nbsp; &amp;nbsp; &amp;nbsp; &amp;nbsp; &amp;nbsp; &amp;nbsp; &amp;nbsp;&lt;br&gt;Botão:Voltar&lt;br&gt;Cor: preto&lt;br&gt;&lt;br&gt;&lt;br&gt;&lt;br&gt;&lt;/span&gt;" style="rounded=1;whiteSpace=wrap;html=1;sketch=1;curveFitting=1;jiggle=2;" vertex="1" parent="1">
          <mxGeometry x="-410" y="580" width="120" height="50" as="geometry" />
        </mxCell>
        <mxCell id="4OGGrObzPnIqFQcxXqdj-38" value="&lt;span style=&quot;text-align: left;&quot;&gt;Fazer pedido&lt;br&gt;Cor: Branca&lt;br&gt;Fundo: Preto&lt;/span&gt;" style="rounded=1;whiteSpace=wrap;html=1;sketch=1;curveFitting=1;jiggle=2;" vertex="1" parent="1">
          <mxGeometry x="-230" y="580" width="120" height="50" as="geometry" />
        </mxCell>
        <mxCell id="yZe3crOF32BxjWn64IId-102" style="edgeStyle=orthogonalEdgeStyle;rounded=1;orthogonalLoop=1;jettySize=auto;html=1;exitX=0.5;exitY=1;exitDx=0;exitDy=0;entryX=0.5;entryY=0;entryDx=0;entryDy=0;sketch=1;curveFitting=1;jiggle=2;" edge="1" parent="1" source="4OGGrObzPnIqFQcxXqdj-41" target="yZe3crOF32BxjWn64IId-98">
          <mxGeometry relative="1" as="geometry" />
        </mxCell>
        <mxCell id="4OGGrObzPnIqFQcxXqdj-41" value="&lt;span style=&quot;text-align: left;&quot;&gt;Período de locação&lt;/span&gt;" style="rounded=1;whiteSpace=wrap;html=1;sketch=1;curveFitting=1;jiggle=2;" vertex="1" parent="1">
          <mxGeometry x="-1050" y="519" width="120" height="50" as="geometry" />
        </mxCell>
        <mxCell id="4OGGrObzPnIqFQcxXqdj-44" value="&lt;font style=&quot;font-size: 11px;&quot;&gt;&lt;br&gt;&lt;span style=&quot;color: rgb(0, 0, 0); font-family: Helvetica; font-style: normal; font-variant-ligatures: normal; font-variant-caps: normal; font-weight: 400; letter-spacing: normal; orphans: 2; text-align: left; text-indent: 0px; text-transform: none; widows: 2; word-spacing: 0px; -webkit-text-stroke-width: 0px; white-space: normal; background-color: rgb(251, 251, 251); text-decoration-thickness: initial; text-decoration-style: initial; text-decoration-color: initial; float: none; display: inline !important;&quot;&gt;BotãoStatus do pedido&lt;br&gt;&lt;/span&gt;Cor: branca&lt;br&gt;Fundo: Preto&lt;/font&gt;&lt;div style=&quot;font-size: 11px;&quot;&gt;&lt;br&gt;&lt;/div&gt;" style="rounded=1;whiteSpace=wrap;html=1;sketch=1;curveFitting=1;jiggle=2;" vertex="1" parent="1">
          <mxGeometry x="-220" y="-220" width="120" height="50" as="geometry" />
        </mxCell>
        <mxCell id="yZe3crOF32BxjWn64IId-5" style="edgeStyle=orthogonalEdgeStyle;rounded=1;orthogonalLoop=1;jettySize=auto;html=1;exitX=1;exitY=0.5;exitDx=0;exitDy=0;sketch=1;curveFitting=1;jiggle=2;" edge="1" parent="1" source="yZe3crOF32BxjWn64IId-3" target="xwLTQEsDSrBxXVj2upfY-15">
          <mxGeometry relative="1" as="geometry" />
        </mxCell>
        <mxCell id="yZe3crOF32BxjWn64IId-3" value="&lt;span style=&quot;font-size: 14px;&quot;&gt;&lt;b&gt;Funcionalidade&lt;/b&gt;&lt;/span&gt;" style="rounded=1;whiteSpace=wrap;html=1;fillColor=#dae8fc;strokeColor=#6c8ebf;sketch=1;curveFitting=1;jiggle=2;" vertex="1" parent="1">
          <mxGeometry x="250" y="215" width="130" height="90" as="geometry" />
        </mxCell>
        <mxCell id="A40qBbhF1JYghewnGqG5-6" style="edgeStyle=orthogonalEdgeStyle;rounded=1;orthogonalLoop=1;jettySize=auto;html=1;exitX=0.5;exitY=0;exitDx=0;exitDy=0;entryX=0.5;entryY=1;entryDx=0;entryDy=0;sketch=1;curveFitting=1;jiggle=2;" edge="1" parent="1" source="yZe3crOF32BxjWn64IId-12" target="4OGGrObzPnIqFQcxXqdj-29">
          <mxGeometry relative="1" as="geometry" />
        </mxCell>
        <mxCell id="yZe3crOF32BxjWn64IId-12" value="&lt;br&gt;&lt;span style=&quot;color: rgb(0, 0, 0); font-family: Helvetica; font-size: 12px; font-style: normal; font-variant-ligatures: normal; font-variant-caps: normal; font-weight: 400; letter-spacing: normal; orphans: 2; text-align: left; text-indent: 0px; text-transform: none; widows: 2; word-spacing: 0px; -webkit-text-stroke-width: 0px; white-space: normal; background-color: rgb(251, 251, 251); text-decoration-thickness: initial; text-decoration-style: initial; text-decoration-color: initial; display: inline !important; float: none;&quot;&gt;&amp;nbsp;Superior direito&amp;nbsp;&lt;/span&gt;&lt;div&gt;&lt;br&gt;&lt;/div&gt;" style="rounded=1;whiteSpace=wrap;html=1;sketch=1;curveFitting=1;jiggle=2;" vertex="1" parent="1">
          <mxGeometry x="-150" y="25" width="120" height="50" as="geometry" />
        </mxCell>
        <mxCell id="A40qBbhF1JYghewnGqG5-3" style="edgeStyle=orthogonalEdgeStyle;rounded=1;orthogonalLoop=1;jettySize=auto;html=1;exitX=0.5;exitY=0;exitDx=0;exitDy=0;sketch=1;curveFitting=1;jiggle=2;" edge="1" parent="1" source="yZe3crOF32BxjWn64IId-23" target="yZe3crOF32BxjWn64IId-29">
          <mxGeometry relative="1" as="geometry" />
        </mxCell>
        <mxCell id="A40qBbhF1JYghewnGqG5-4" style="edgeStyle=orthogonalEdgeStyle;rounded=1;orthogonalLoop=1;jettySize=auto;html=1;exitX=0.5;exitY=0;exitDx=0;exitDy=0;sketch=1;curveFitting=1;jiggle=2;" edge="1" parent="1" source="yZe3crOF32BxjWn64IId-23" target="yZe3crOF32BxjWn64IId-30">
          <mxGeometry relative="1" as="geometry" />
        </mxCell>
        <mxCell id="yZe3crOF32BxjWn64IId-23" value="&lt;br&gt;&lt;span style=&quot;color: rgb(0, 0, 0); font-family: Helvetica; font-size: 12px; font-style: normal; font-variant-ligatures: normal; font-variant-caps: normal; font-weight: 400; letter-spacing: normal; orphans: 2; text-align: left; text-indent: 0px; text-transform: none; widows: 2; word-spacing: 0px; -webkit-text-stroke-width: 0px; white-space: normal; background-color: rgb(251, 251, 251); text-decoration-thickness: initial; text-decoration-style: initial; text-decoration-color: initial; display: inline !important; float: none;&quot;&gt;&amp;nbsp;Superior esquerdo&amp;nbsp;&lt;/span&gt;&lt;div&gt;&lt;br&gt;&lt;/div&gt;" style="rounded=1;whiteSpace=wrap;html=1;sketch=1;curveFitting=1;jiggle=2;" vertex="1" parent="1">
          <mxGeometry x="-470" y="25" width="120" height="50" as="geometry" />
        </mxCell>
        <mxCell id="yZe3crOF32BxjWn64IId-29" value="&lt;div&gt;Logo: Urban scooter&lt;br&gt;Cor: Prtea&lt;/div&gt;" style="rounded=1;whiteSpace=wrap;html=1;sketch=1;curveFitting=1;jiggle=2;" vertex="1" parent="1">
          <mxGeometry x="-540" y="-130" width="120" height="50" as="geometry" />
        </mxCell>
        <mxCell id="yZe3crOF32BxjWn64IId-30" value="&lt;div&gt;Plataforma interativa&lt;br&gt;Cor: Preta&lt;/div&gt;" style="rounded=1;whiteSpace=wrap;html=1;sketch=1;curveFitting=1;jiggle=2;" vertex="1" parent="1">
          <mxGeometry x="-400" y="-130" width="120" height="50" as="geometry" />
        </mxCell>
        <mxCell id="yZe3crOF32BxjWn64IId-64" style="edgeStyle=orthogonalEdgeStyle;rounded=1;orthogonalLoop=1;jettySize=auto;html=1;exitX=0.5;exitY=0;exitDx=0;exitDy=0;sketch=1;curveFitting=1;jiggle=2;" edge="1" parent="1" source="yZe3crOF32BxjWn64IId-40" target="yZe3crOF32BxjWn64IId-55">
          <mxGeometry relative="1" as="geometry" />
        </mxCell>
        <mxCell id="yZe3crOF32BxjWn64IId-40" value="Formato: Retangulo com bordas finas arrendodadas cinza" style="rounded=1;whiteSpace=wrap;html=1;sketch=1;curveFitting=1;jiggle=2;" vertex="1" parent="1">
          <mxGeometry x="-1260" y="-30" width="120" height="50" as="geometry" />
        </mxCell>
        <mxCell id="yZe3crOF32BxjWn64IId-63" style="edgeStyle=orthogonalEdgeStyle;rounded=1;orthogonalLoop=1;jettySize=auto;html=1;exitX=0.5;exitY=0;exitDx=0;exitDy=0;entryX=0.5;entryY=1;entryDx=0;entryDy=0;sketch=1;curveFitting=1;jiggle=2;" edge="1" parent="1" source="yZe3crOF32BxjWn64IId-42" target="yZe3crOF32BxjWn64IId-56">
          <mxGeometry relative="1" as="geometry" />
        </mxCell>
        <mxCell id="yZe3crOF32BxjWn64IId-42" value="Formato: Retangulo com bordas finas arrendodadas cinza" style="rounded=1;whiteSpace=wrap;html=1;sketch=1;curveFitting=1;jiggle=2;" vertex="1" parent="1">
          <mxGeometry x="-1130" y="-30" width="120" height="50" as="geometry" />
        </mxCell>
        <mxCell id="yZe3crOF32BxjWn64IId-62" style="edgeStyle=orthogonalEdgeStyle;rounded=1;orthogonalLoop=1;jettySize=auto;html=1;exitX=0.5;exitY=0;exitDx=0;exitDy=0;entryX=0.5;entryY=1;entryDx=0;entryDy=0;sketch=1;curveFitting=1;jiggle=2;" edge="1" parent="1" source="yZe3crOF32BxjWn64IId-43" target="yZe3crOF32BxjWn64IId-57">
          <mxGeometry relative="1" as="geometry" />
        </mxCell>
        <mxCell id="yZe3crOF32BxjWn64IId-43" value="Formato: Retangulo com bordas finas arrendodadas cinza" style="rounded=1;whiteSpace=wrap;html=1;sketch=1;curveFitting=1;jiggle=2;" vertex="1" parent="1">
          <mxGeometry x="-1000" y="-30" width="120" height="50" as="geometry" />
        </mxCell>
        <mxCell id="yZe3crOF32BxjWn64IId-61" style="edgeStyle=orthogonalEdgeStyle;rounded=1;orthogonalLoop=1;jettySize=auto;html=1;exitX=0.5;exitY=0;exitDx=0;exitDy=0;entryX=0.5;entryY=1;entryDx=0;entryDy=0;sketch=1;curveFitting=1;jiggle=2;" edge="1" parent="1" source="yZe3crOF32BxjWn64IId-44" target="yZe3crOF32BxjWn64IId-58">
          <mxGeometry relative="1" as="geometry" />
        </mxCell>
        <mxCell id="yZe3crOF32BxjWn64IId-44" value="Formato: Retangulo com bordas finas arrendodadas cinza" style="rounded=1;whiteSpace=wrap;html=1;sketch=1;curveFitting=1;jiggle=2;" vertex="1" parent="1">
          <mxGeometry x="-870" y="-30" width="120" height="50" as="geometry" />
        </mxCell>
        <mxCell id="yZe3crOF32BxjWn64IId-60" style="edgeStyle=orthogonalEdgeStyle;rounded=1;orthogonalLoop=1;jettySize=auto;html=1;exitX=0.5;exitY=0;exitDx=0;exitDy=0;entryX=0.5;entryY=1;entryDx=0;entryDy=0;sketch=1;curveFitting=1;jiggle=2;" edge="1" parent="1" source="yZe3crOF32BxjWn64IId-45" target="yZe3crOF32BxjWn64IId-59">
          <mxGeometry relative="1" as="geometry" />
        </mxCell>
        <mxCell id="yZe3crOF32BxjWn64IId-45" value="Formato: Retangulo com bordas finas arrendodadas cinza" style="rounded=1;whiteSpace=wrap;html=1;sketch=1;curveFitting=1;jiggle=2;" vertex="1" parent="1">
          <mxGeometry x="-740" y="-30" width="120" height="50" as="geometry" />
        </mxCell>
        <mxCell id="yZe3crOF32BxjWn64IId-55" value="Placeholder:&lt;br&gt;*Nome&lt;br&gt;Cor: Cinza" style="rounded=1;whiteSpace=wrap;html=1;sketch=1;curveFitting=1;jiggle=2;" vertex="1" parent="1">
          <mxGeometry x="-1260" y="-100" width="120" height="50" as="geometry" />
        </mxCell>
        <mxCell id="yZe3crOF32BxjWn64IId-56" value="Placeholder:&lt;br&gt;*Sobrenome&lt;br&gt;Cor: Cinza" style="rounded=1;whiteSpace=wrap;html=1;sketch=1;curveFitting=1;jiggle=2;" vertex="1" parent="1">
          <mxGeometry x="-1130" y="-100" width="120" height="50" as="geometry" />
        </mxCell>
        <mxCell id="yZe3crOF32BxjWn64IId-57" value="&lt;font style=&quot;font-size: 8px;&quot;&gt;Placeholder:&lt;br&gt;*Endereço: para levar a scooter&lt;br&gt;Cor: Cinza&lt;/font&gt;" style="rounded=1;whiteSpace=wrap;html=1;sketch=1;curveFitting=1;jiggle=2;" vertex="1" parent="1">
          <mxGeometry x="-1000" y="-100" width="120" height="50" as="geometry" />
        </mxCell>
        <mxCell id="yZe3crOF32BxjWn64IId-58" value="Placeholder:&lt;br&gt;*Estação de metrô&lt;br&gt;Cor: Cinza" style="rounded=1;whiteSpace=wrap;html=1;sketch=1;curveFitting=1;jiggle=2;" vertex="1" parent="1">
          <mxGeometry x="-870" y="-100" width="120" height="50" as="geometry" />
        </mxCell>
        <mxCell id="yZe3crOF32BxjWn64IId-59" value="&lt;font style=&quot;font-size: 5px;&quot;&gt;Placeholder:&lt;br&gt;*Telefone: O entregador ligara para esse número&lt;br&gt;Cor: Cinza&lt;/font&gt;" style="rounded=1;whiteSpace=wrap;html=1;sketch=1;curveFitting=1;jiggle=2;" vertex="1" parent="1">
          <mxGeometry x="-740" y="-100" width="120" height="50" as="geometry" />
        </mxCell>
        <mxCell id="mqVnmg8YsWh0ZXwfy0u9-5" style="edgeStyle=orthogonalEdgeStyle;rounded=1;orthogonalLoop=1;jettySize=auto;html=1;entryX=1;entryY=0.5;entryDx=0;entryDy=0;sketch=1;curveFitting=1;jiggle=2;" edge="1" parent="1" source="yZe3crOF32BxjWn64IId-66" target="4OGGrObzPnIqFQcxXqdj-21">
          <mxGeometry relative="1" as="geometry" />
        </mxCell>
        <mxCell id="mqVnmg8YsWh0ZXwfy0u9-7" style="edgeStyle=orthogonalEdgeStyle;rounded=1;orthogonalLoop=1;jettySize=auto;html=1;exitX=0.5;exitY=1;exitDx=0;exitDy=0;entryX=0.5;entryY=0;entryDx=0;entryDy=0;sketch=1;curveFitting=1;jiggle=2;" edge="1" parent="1" source="yZe3crOF32BxjWn64IId-66" target="4OGGrObzPnIqFQcxXqdj-7">
          <mxGeometry relative="1" as="geometry" />
        </mxCell>
        <mxCell id="A40qBbhF1JYghewnGqG5-5" style="edgeStyle=orthogonalEdgeStyle;rounded=1;orthogonalLoop=1;jettySize=auto;html=1;exitX=0.5;exitY=0;exitDx=0;exitDy=0;entryX=0.5;entryY=1;entryDx=0;entryDy=0;sketch=1;curveFitting=1;jiggle=2;" edge="1" parent="1" source="yZe3crOF32BxjWn64IId-66" target="4OGGrObzPnIqFQcxXqdj-24">
          <mxGeometry relative="1" as="geometry" />
        </mxCell>
        <mxCell id="yZe3crOF32BxjWn64IId-66" value="&lt;span style=&quot;font-size: 14px;&quot;&gt;&lt;b&gt;Layout&lt;/b&gt;&lt;/span&gt;" style="rounded=1;whiteSpace=wrap;html=1;fillColor=#dae8fc;strokeColor=#6c8ebf;sketch=1;curveFitting=1;jiggle=2;" vertex="1" parent="1">
          <mxGeometry x="-332.5" y="200" width="140" height="100" as="geometry" />
        </mxCell>
        <mxCell id="yZe3crOF32BxjWn64IId-91" value="&lt;br&gt;&lt;span style=&quot;color: rgb(0, 0, 0); font-family: Helvetica; font-size: 12px; font-style: normal; font-variant-ligatures: normal; font-variant-caps: normal; font-weight: 400; letter-spacing: normal; orphans: 2; text-align: left; text-indent: 0px; text-transform: none; widows: 2; word-spacing: 0px; -webkit-text-stroke-width: 0px; white-space: normal; background-color: rgb(251, 251, 251); text-decoration-thickness: initial; text-decoration-style: initial; text-decoration-color: initial; display: inline !important; float: none;&quot;&gt;Placeholder: *Quando entregar a scooter&lt;br&gt;&lt;/span&gt;Cor: Cinza&lt;div&gt;&lt;br&gt;&lt;/div&gt;" style="rounded=1;whiteSpace=wrap;html=1;sketch=1;curveFitting=1;jiggle=2;" vertex="1" parent="1">
          <mxGeometry x="-1180" y="600" width="120" height="50" as="geometry" />
        </mxCell>
        <mxCell id="yZe3crOF32BxjWn64IId-98" value="&lt;br&gt;&lt;span style=&quot;color: rgb(0, 0, 0); font-family: Helvetica; font-size: 12px; font-style: normal; font-variant-ligatures: normal; font-variant-caps: normal; font-weight: 400; letter-spacing: normal; orphans: 2; text-align: left; text-indent: 0px; text-transform: none; widows: 2; word-spacing: 0px; -webkit-text-stroke-width: 0px; white-space: normal; background-color: rgb(251, 251, 251); text-decoration-thickness: initial; text-decoration-style: initial; text-decoration-color: initial; display: inline !important; float: none;&quot;&gt;Placeholder: *Periodo de locação&lt;br&gt;&lt;/span&gt;Cor: Cinza&lt;div&gt;&lt;br&gt;&lt;/div&gt;" style="rounded=1;whiteSpace=wrap;html=1;sketch=1;curveFitting=1;jiggle=2;" vertex="1" parent="1">
          <mxGeometry x="-1050" y="600" width="120" height="50" as="geometry" />
        </mxCell>
        <mxCell id="yZe3crOF32BxjWn64IId-99" value="&lt;font style=&quot;font-size: 11px;&quot;&gt;&lt;br&gt;&lt;span style=&quot;color: rgb(0, 0, 0); font-family: Helvetica; font-style: normal; font-variant-ligatures: normal; font-variant-caps: normal; font-weight: 400; letter-spacing: normal; orphans: 2; text-align: left; text-indent: 0px; text-transform: none; widows: 2; word-spacing: 0px; -webkit-text-stroke-width: 0px; white-space: normal; background-color: rgb(251, 251, 251); text-decoration-thickness: initial; text-decoration-style: initial; text-decoration-color: initial; float: none; display: inline !important;&quot;&gt;Placeholder: A cor da scooter&lt;br&gt;Preto, cinza&lt;br&gt;&amp;nbsp;&amp;nbsp;&lt;/span&gt;Cor: Cinza&lt;/font&gt;&lt;div style=&quot;font-size: 11px;&quot;&gt;&lt;br&gt;&lt;/div&gt;" style="rounded=1;whiteSpace=wrap;html=1;sketch=1;curveFitting=1;jiggle=2;" vertex="1" parent="1">
          <mxGeometry x="-920" y="600" width="120" height="50" as="geometry" />
        </mxCell>
        <mxCell id="yZe3crOF32BxjWn64IId-100" value="&lt;font style=&quot;font-size: 11px;&quot;&gt;&lt;br&gt;&lt;span style=&quot;color: rgb(0, 0, 0); font-family: Helvetica; font-style: normal; font-variant-ligatures: normal; font-variant-caps: normal; font-weight: 400; letter-spacing: normal; orphans: 2; text-align: left; text-indent: 0px; text-transform: none; widows: 2; word-spacing: 0px; -webkit-text-stroke-width: 0px; white-space: normal; background-color: rgb(251, 251, 251); text-decoration-thickness: initial; text-decoration-style: initial; text-decoration-color: initial; float: none; display: inline !important;&quot;&gt;Placeholder:&amp;nbsp;&lt;br style=&quot;text-align: center;&quot;&gt;Comentário para o entregador&amp;nbsp;&lt;/span&gt;Cor: Cinza&lt;/font&gt;&lt;div style=&quot;font-size: 11px;&quot;&gt;&lt;br&gt;&lt;/div&gt;" style="rounded=1;whiteSpace=wrap;html=1;sketch=1;curveFitting=1;jiggle=2;" vertex="1" parent="1">
          <mxGeometry x="-790" y="600" width="120" height="50" as="geometry" />
        </mxCell>
        <mxCell id="A40qBbhF1JYghewnGqG5-8" style="edgeStyle=orthogonalEdgeStyle;rounded=1;orthogonalLoop=1;jettySize=auto;html=1;exitX=0.5;exitY=0;exitDx=0;exitDy=0;entryX=0.5;entryY=1;entryDx=0;entryDy=0;sketch=1;curveFitting=1;jiggle=2;" edge="1" parent="1" source="yZe3crOF32BxjWn64IId-126" target="4OGGrObzPnIqFQcxXqdj-44">
          <mxGeometry relative="1" as="geometry" />
        </mxCell>
        <mxCell id="yZe3crOF32BxjWn64IId-126" value="&lt;div style=&quot;text-align: left; font-size: 8px;&quot;&gt;Modal &quot;O pedido foi feito&quot;&amp;nbsp;&lt;span style=&quot;background-color: initial;&quot;&gt;Texto: &quot;Número do pedido NNNNN. Anote esse número: ele vai servir para acompanhar o status&amp;nbsp;&lt;/span&gt;&lt;/div&gt;" style="rounded=1;whiteSpace=wrap;html=1;sketch=1;curveFitting=1;jiggle=2;" vertex="1" parent="1">
          <mxGeometry x="-220" y="-130" width="120" height="50" as="geometry" />
        </mxCell>
        <mxCell id="mqVnmg8YsWh0ZXwfy0u9-10" style="edgeStyle=orthogonalEdgeStyle;rounded=1;orthogonalLoop=1;jettySize=auto;html=1;exitX=1;exitY=0.5;exitDx=0;exitDy=0;entryX=0;entryY=0.5;entryDx=0;entryDy=0;sketch=1;curveFitting=1;jiggle=2;" edge="1" parent="1" source="mqVnmg8YsWh0ZXwfy0u9-4" target="yZe3crOF32BxjWn64IId-3">
          <mxGeometry relative="1" as="geometry" />
        </mxCell>
        <mxCell id="mqVnmg8YsWh0ZXwfy0u9-11" style="edgeStyle=orthogonalEdgeStyle;rounded=1;orthogonalLoop=1;jettySize=auto;html=1;exitX=0;exitY=0.5;exitDx=0;exitDy=0;entryX=1;entryY=0.5;entryDx=0;entryDy=0;sketch=1;curveFitting=1;jiggle=2;" edge="1" parent="1" source="mqVnmg8YsWh0ZXwfy0u9-4" target="yZe3crOF32BxjWn64IId-66">
          <mxGeometry relative="1" as="geometry" />
        </mxCell>
        <mxCell id="mqVnmg8YsWh0ZXwfy0u9-4" value="&lt;span style=&quot;font-size: 14px;&quot;&gt;&lt;b&gt;Tela &quot;Fazer pedido&quot;&lt;/b&gt;&lt;/span&gt;" style="rounded=1;whiteSpace=wrap;html=1;fillColor=#f8cecc;strokeColor=#b85450;sketch=1;curveFitting=1;jiggle=2;" vertex="1" parent="1">
          <mxGeometry x="-20" y="205" width="150" height="145" as="geometry" />
        </mxCell>
        <mxCell id="A40qBbhF1JYghewnGqG5-7" style="edgeStyle=orthogonalEdgeStyle;rounded=1;orthogonalLoop=1;jettySize=auto;html=1;exitX=0.5;exitY=0;exitDx=0;exitDy=0;entryX=0.602;entryY=1.061;entryDx=0;entryDy=0;entryPerimeter=0;sketch=1;curveFitting=1;jiggle=2;" edge="1" parent="1" source="yZe3crOF32BxjWn64IId-12" target="4OGGrObzPnIqFQcxXqdj-28">
          <mxGeometry relative="1" as="geometry" />
        </mxCell>
        <mxCell id="A40qBbhF1JYghewnGqG5-29" style="edgeStyle=orthogonalEdgeStyle;rounded=1;orthogonalLoop=1;jettySize=auto;html=1;exitX=0.5;exitY=0;exitDx=0;exitDy=0;entryX=0.597;entryY=1.024;entryDx=0;entryDy=0;entryPerimeter=0;sketch=1;curveFitting=1;jiggle=2;" edge="1" parent="1" source="xwLTQEsDSrBxXVj2upfY-58" target="xwLTQEsDSrBxXVj2upfY-59">
          <mxGeometry relative="1" as="geometry" />
        </mxCell>
      </root>
    </mxGraphModel>
  </diagram>
</mxfile>
